<svg xmlns="http://www.w3.org/2000/svg" viewBox="0 0 500 500">
  <path fill="none" stroke="#fff" stroke-linecap="round" stroke-linejoin="round" stroke-width="13" d="M127.3 240.9C264.4 270 261.7 270 261.7 270L383 218c-4.1 0-10.7 15-10.6 27 .1 13 7.3 23 10.6 23l-121.3 52.1s-112.7-24.5-134.4-29c-23.9-5.6-23.9-43.8 0-50.2z"/>
  <path fill="none" stroke="#fff" stroke-linecap="round" stroke-linejoin="round" stroke-width="13" d="M127.4 190.6C264.6 219.8 262 219.8 262 219.8l121.3-52c-4.2 0-10.7 15-10.6 27 .1 13 7.3 23 10.6 23-.4.3-121.3 52.1-121.3 52.1s-112.7-24.6-134.5-29.1c-23.8-5.6-23.8-43.8 0-50.2zm.1 100.2C264.6 320.1 261.9 320 261.9 320l121.3-52c-4.1 0-10.7 15.1-10.6 27 .1 13.1 7.4 23 10.6 23-.4.3 0 .1-121.3 52.2 0 0-112.7-24.6-134.4-29.2-23.9-5.6-23.9-43.7 0-50.2z"/>
  <path fill="#fff" stroke="#fff" stroke-linecap="round" stroke-linejoin="round" stroke-width="13" d="M127.3 190.6c118.8-51 122.5-52.2 122.5-52.2C384 167.9 384 168.2 384 167.9c.3 0-121.3 52.1-121.3 52.1s-1 0-135.4-29.4z"/>
  <path style="transform-origin:185.584px 209.196px" fill="#fff" d="M236.4 240.4c0-3.3 2.7-5.8 6-5.5 3.4.3 6.2 3.3 6.2 6.7 0 3.3-2.8 5.8-6.1 5.5-3.4-.4-6-3.3-6-6.7zm.1 49.9c0-3.4 2.7-5.8 6-5.5 3.4.3 6.1 3.3 6.1 6.6 0 3.4-2.7 5.8-6 5.5-3.4-.3-6.1-3.3-6.1-6.6zm.1 51.1c0-3.3 2.7-5.8 6-5.5 3.4.3 6.1 3.3 6.1 6.7 0 3.3-2.7 5.8-6 5.4-3.4-.3-6-3.2-6-6.6z"/>
</svg>
