<?xml version="1.0" encoding="utf-8"?>
<svg viewBox="0 0 500 500" xmlns="http://www.w3.org/2000/svg">
  <path style="fill-opacity: 0; stroke-linejoin: round; stroke-linecap: round; stroke-width: 13px; stroke: rgb(255, 255, 255); fill: rgb(255, 255, 255);" d="M 127.265 240.895 C 264.424 270.12 261.708 270.082 261.708 270.082 L 383.006 218.001 C 378.869 218.001 372.283 233.166 372.398 245.037 C 372.526 258.177 379.743 268.153 383.006 268.153 C 382.617 268.344 261.708 320.234 261.708 320.238 C 261.708 320.238 149.034 295.633 127.265 291.051 C 103.435 285.473 103.435 247.333 127.265 240.895 Z" transform="matrix(1, 0, 0, 1, 0, 7.105427357601002e-15)"/>
  <path style="fill-opacity: 0; stroke-linejoin: round; stroke-linecap: round; stroke-width: 13px; stroke: rgb(255, 255, 255); fill: rgb(255, 255, 255);" d="M 127.441 190.604 C 264.6 219.829 261.884 219.791 261.884 219.791 L 383.182 167.71 C 379.045 167.71 372.459 182.875 372.574 194.746 C 372.702 207.886 379.919 217.862 383.182 217.862 C 382.793 218.053 261.884 269.943 261.884 269.947 C 261.884 269.947 149.21 245.342 127.441 240.76 C 103.611 235.182 103.611 197.042 127.441 190.604 Z" transform="matrix(1, 0, 0, 1, 0, 7.105427357601002e-15)"/>
  <path style="fill-opacity: 0; stroke-linejoin: round; stroke-linecap: round; stroke-width: 13px; stroke: rgb(255, 255, 255); fill: rgb(255, 255, 255);" d="M 127.477 290.841 C 264.636 320.066 261.92 320.028 261.92 320.028 L 383.218 267.947 C 379.081 267.947 372.495 283.112 372.61 294.983 C 372.738 308.123 379.955 318.099 383.218 318.099 C 382.829 318.29 383.223 318.144 261.92 370.184 C 261.92 370.184 149.246 345.579 127.477 340.997 C 103.647 335.419 103.647 297.279 127.477 290.841 Z" transform="matrix(1, 0, 0, 1, 0, 7.105427357601002e-15)"/>
  <path style="stroke-linejoin: round; stroke-linecap: round; stroke-width: 13px; stroke: rgb(255, 255, 255); fill: rgb(255, 255, 255);" d="M 127.26 190.573 C 246.089 139.678 249.769 138.4 249.769 138.4 C 384.062 167.947 384.002 168.164 384.033 167.924 C 384.26 167.983 262.735 220.005 262.735 220.009 C 262.735 220.009 261.8 220.009 127.26 190.573 Z" transform="matrix(1, 0, 0, 1, 0, 7.105427357601002e-15)"/>
  <ellipse style="stroke-opacity: 0; stroke-width: 0px; stroke: rgb(255, 255, 255); fill: rgb(255, 255, 255); transform-origin: 185.584px 209.196px;" cx="185.496" cy="208.742" rx="6.089" ry="6.035" transform="matrix(0.99551910162, 0.094557017088, 0, 1.004500985146, 56.999841738148, 32.257297816037)"/>
  <ellipse style="stroke-opacity: 0; stroke-width: 0px; stroke: rgb(255, 255, 255); fill: rgb(255, 255, 255); transform-origin: 185.584px 209.196px;" cx="185.496" cy="208.742" rx="6.089" ry="6.035" transform="matrix(0.99551910162, 0.094557017088, 0, 1.004500985146, 57.063978243281, 82.119757952454)"/>
  <ellipse style="stroke-opacity: 0; stroke-width: 0px; stroke: rgb(255, 255, 255); fill: rgb(255, 255, 255); transform-origin: 185.584px 209.196px;" cx="185.496" cy="208.742" rx="6.089" ry="6.035" transform="matrix(0.99551910162, 0.094557017088, 0, 1.004500985146, 57.171140718867, 133.245227160205)"/>
</svg>