<?xml version="1.0" encoding="UTF-8" standalone="no"?>
<svg
   width="701"
   height="166"
   viewBox="0 0 701 166"
   fill="none"
   version="1.1"
   id="svg18"
   sodipodi:docname="CedarDB_Logo.svg"
   inkscape:version="1.2.2 (b0a8486541, 2022-12-01)"
   xmlns:inkscape="http://www.inkscape.org/namespaces/inkscape"
   xmlns:sodipodi="http://sodipodi.sourceforge.net/DTD/sodipodi-0.dtd"
   xmlns="http://www.w3.org/2000/svg"
   xmlns:svg="http://www.w3.org/2000/svg">
  <defs
     id="defs22" />
  <sodipodi:namedview
     id="namedview20"
     pagecolor="#ffffff"
     bordercolor="#666666"
     borderopacity="1.0"
     inkscape:showpageshadow="2"
     inkscape:pageopacity="0.0"
     inkscape:pagecheckerboard="0"
     inkscape:deskcolor="#d1d1d1"
     showgrid="false"
     inkscape:zoom="1.4216867"
     inkscape:cx="350.28814"
     inkscape:cy="83.351695"
     inkscape:window-width="1440"
     inkscape:window-height="832"
     inkscape:window-x="0"
     inkscape:window-y="0"
     inkscape:window-maximized="1"
     inkscape:current-layer="svg18" />
  <path
     d="M8.12172 112.546C29.787 107.268 50.3235 96.1681 67.5566 80.4221C81.1261 68.0236 92.6483 52.7746 101.358 35.6885M8.12172 112.546C4.98006 106.426 3.20899 99.4162 3.01793 92.3447C2.88619 87.4693 3.49245 82.5984 4.43502 77.8384C5.26796 73.6321 6.36438 69.4924 7.71344 65.4606M8.12172 112.546C7.82961 118.663 9.0022 124.862 11.4819 130.309C15.4829 139.099 22.5997 145.551 30.036 150.757M101.358 35.6885C101.809 34.985 102.425 34.4184 103.126 34.0628C103.828 33.7071 104.612 33.5633 105.377 33.6503C106.135 33.7366 106.867 34.0462 107.518 34.4955C108.168 34.9448 108.74 35.5313 109.238 36.183C110.235 37.4865 110.939 39.0358 111.685 40.5384C113.715 44.6275 116.115 48.4669 118.222 52.5063C120.328 56.5457 122.157 60.8479 122.899 65.4606M101.358 35.6885C99.2115 28.2343 96.4329 21.0128 93.0726 14.1548C92.2297 12.4347 91.3432 10.7261 90.2039 9.23991C89.0645 7.75377 87.6502 6.48915 86.0028 5.85539C84.7971 5.39154 83.487 5.27885 82.233 5.53101C80.979 5.78318 79.7838 6.39972 78.7938 7.30511M30.036 150.757C47.6585 137.582 66.0292 125.686 84.9977 115.165C94.3728 109.965 104.064 104.973 111.718 96.9449C115.545 92.9308 118.815 88.1674 120.897 82.7569C122.979 77.3464 123.833 71.2653 122.899 65.4606M30.036 150.757C34.4461 153.844 39.0548 156.6 43.9119 158.66C57.5565 164.446 73.0564 164.447 86.7007 158.66C91.5577 156.599 96.1662 153.843 100.577 150.757M122.899 65.4606C124.248 69.4925 125.344 73.6322 126.177 77.8384C127.12 82.5984 127.728 87.4694 127.595 92.3448C127.402 99.4187 125.623 106.43 122.47 112.546M122.899 65.4606C109.466 63.7157 96.3987 58.4759 84.9977 50.2633C70.6194 39.9059 58.9547 24.8029 51.819 7.30511M78.7938 7.30511C76.6751 5.833 74.3665 4.71028 71.9638 3.98364C67.6272 2.67212 62.9855 2.67212 58.6488 3.98364C56.2462 4.71028 53.9377 5.833 51.819 7.30511M78.7938 7.30511C71.6581 24.8029 59.9932 39.9059 45.6149 50.2633C34.2138 58.476 21.1462 63.7157 7.71344 65.4606M51.819 7.30511C50.829 6.39965 49.6337 5.78306 48.3798 5.53087C47.1258 5.2787 45.8158 5.39152 44.6101 5.85539C42.9628 6.48927 41.5485 7.75394 40.4092 9.24013C39.2698 10.7263 38.3834 12.4349 37.5402 14.1548C34.1772 21.0145 31.3919 28.2355 29.2341 35.6885M29.2341 35.6885C28.7853 34.9881 28.1721 34.4234 27.4744 34.0678C26.7767 33.7123 25.9962 33.5668 25.2344 33.6503C24.4742 33.7335 23.7399 34.0415 23.0872 34.4899C22.4346 34.9383 21.8614 35.5247 21.3611 36.1768C20.3606 37.4812 19.6547 39.0331 18.9071 40.5383C16.8771 44.6253 14.4795 48.465 12.3774 52.5053C10.2753 56.5456 8.4518 60.8488 7.71344 65.4606M29.2341 35.6885C37.9525 52.7746 49.4815 68.023 63.0562 80.4221C80.2863 96.16 100.814 107.259 122.47 112.546M7.71344 65.4606C6.78406 71.2654 7.64092 77.3446 9.72413 82.7537C11.8074 88.1628 15.0767 92.9252 18.9027 96.9392C26.5549 104.967 36.2424 109.963 45.6149 115.165C64.5807 125.692 82.9511 137.588 100.577 150.757M100.577 150.757C108.014 145.551 115.135 139.102 119.131 130.309C121.607 124.861 122.772 118.661 122.47 112.546"
     stroke="#FB773E"
     stroke-width="5.76"
     id="path2" />
  <path
     d="M628.525 135.966V32.6001H664.663C671.864 32.6001 677.803 33.8451 682.48 36.335C687.157 38.7913 690.639 42.1056 692.927 46.2779C695.215 50.4166 696.359 55.0095 696.359 60.0566C696.359 64.4981 695.569 68.1657 693.987 71.0595C692.439 73.9532 690.387 76.2412 687.83 77.9236C685.306 79.606 682.564 80.8509 679.603 81.6585V82.6679C682.766 82.8698 685.945 83.9802 689.142 85.999C692.338 88.0179 695.013 90.9116 697.167 94.6802C699.32 98.4487 700.397 103.058 700.397 108.509C700.397 113.691 699.219 118.351 696.864 122.49C694.509 126.629 690.791 129.909 685.71 132.332C680.629 134.755 674.017 135.966 665.874 135.966H628.525ZM641.042 124.862H665.874C674.051 124.862 679.855 123.281 683.287 120.118C686.753 116.921 688.486 113.052 688.486 108.509C688.486 105.01 687.594 101.78 685.811 98.8188C684.027 95.8242 681.487 93.4352 678.189 91.6519C674.892 89.8349 670.989 88.9264 666.48 88.9264H641.042V124.862ZM641.042 78.0245H664.259C668.028 78.0245 671.426 77.2843 674.455 75.8038C677.517 74.3233 679.939 72.2371 681.722 69.5453C683.539 66.8535 684.448 63.6906 684.448 60.0566C684.448 55.5142 682.867 51.6615 679.704 48.4987C676.541 45.3021 671.527 43.7038 664.663 43.7038H641.042V78.0245Z"
     fill="#0D222D"
     id="path4"
     style="fill:#f2f2f2" />
  <path
     d="M567.745 135.966H535.847V32.6001H569.158C579.185 32.6001 587.765 34.6694 594.898 38.8081C602.032 42.9131 607.5 48.8183 611.302 56.5236C615.104 64.1953 617.005 73.3811 617.005 84.0811C617.005 94.8484 615.087 104.118 611.251 111.891C607.415 119.63 601.83 125.586 594.495 129.758C587.159 133.897 578.243 135.966 567.745 135.966ZM548.364 124.862H566.937C575.484 124.862 582.567 123.213 588.186 119.916C593.805 116.618 597.994 111.925 600.753 105.834C603.512 99.7441 604.892 92.4931 604.892 84.0811C604.892 75.7365 603.529 68.5527 600.804 62.5298C598.078 56.4732 594.007 51.8298 588.59 48.5996C583.172 45.3358 576.426 43.7038 568.35 43.7038H548.364V124.862Z"
     fill="#0D222D"
     id="path6"
     style="fill:#f2f2f2" />
  <path
     d="M485.564 135.985V58.4608H497.072V70.1702H497.88C499.293 66.3344 501.85 63.222 505.551 60.833C509.252 58.444 513.425 57.2495 518.068 57.2495C518.943 57.2495 520.037 57.2663 521.349 57.3C522.661 57.3336 523.654 57.3841 524.327 57.4514V69.5646C523.923 69.4636 522.998 69.3122 521.551 69.1103C520.138 68.8748 518.64 68.757 517.059 68.757C513.29 68.757 509.925 69.5478 506.964 71.1292C504.037 72.677 501.715 74.8304 499.999 77.5896C498.317 80.315 497.476 83.4275 497.476 86.9268V135.985H485.564Z"
     fill="#0D222D"
     id="path8"
     style="fill:#f2f2f2" />
  <path
     d="M435.554 137.591C430.641 137.591 426.183 136.666 422.179 134.815C418.174 132.931 414.995 130.222 412.639 126.689C410.284 123.122 409.106 118.816 409.106 113.768C409.106 109.327 409.981 105.727 411.731 102.967C413.481 100.175 415.819 97.9876 418.747 96.4062C421.674 94.8247 424.904 93.6471 428.437 92.8732C432.004 92.0656 435.587 91.4263 439.187 90.9553C443.898 90.3496 447.717 89.8954 450.645 89.5925C453.606 89.256 455.759 88.7009 457.105 87.927C458.484 87.1531 459.174 85.8072 459.174 83.8892V83.4855C459.174 78.5056 457.812 74.6361 455.086 71.877C452.394 69.1179 448.306 67.7383 442.821 67.7383C437.135 67.7383 432.677 68.9833 429.446 71.4732C426.216 73.9632 423.945 76.6213 422.633 79.4477L411.327 75.41C413.346 70.6993 416.038 67.0317 419.403 64.4072C422.801 61.749 426.502 59.8984 430.506 58.8553C434.544 57.7786 438.515 57.2402 442.418 57.2402C444.908 57.2402 447.768 57.5431 450.998 58.1487C454.262 58.7207 457.408 59.9152 460.436 61.7322C463.498 63.5492 466.038 66.2915 468.057 69.9591C470.076 73.6267 471.086 78.5392 471.086 84.6968V135.774H459.174V125.276H458.569C457.761 126.958 456.415 128.758 454.531 130.676C452.647 132.594 450.14 134.226 447.011 135.572C443.881 136.918 440.062 137.591 435.554 137.591ZM437.371 126.891C442.081 126.891 446.052 125.966 449.282 124.115C452.546 122.264 455.002 119.875 456.651 116.948C458.333 114.021 459.174 110.942 459.174 107.712V96.81C458.67 97.4156 457.559 97.9708 455.843 98.4755C454.161 98.9466 452.209 99.3672 449.988 99.7373C447.801 100.074 445.665 100.377 443.579 100.646C441.526 100.881 439.86 101.083 438.582 101.251C435.486 101.655 432.593 102.311 429.901 103.22C427.243 104.095 425.089 105.424 423.44 107.207C421.825 108.957 421.018 111.346 421.018 114.374C421.018 118.513 422.549 121.642 425.611 123.762C428.706 125.848 432.626 126.891 437.371 126.891Z"
     fill="#0D222D"
     id="path10"
     style="fill:#f2f2f2" />
  <path
     d="M362.054 137.581C355.594 137.581 349.89 135.949 344.944 132.685C339.998 129.388 336.128 124.744 333.336 118.755C330.543 112.732 329.146 105.616 329.146 97.4056C329.146 89.2629 330.543 82.1969 333.336 76.2076C336.128 70.2183 340.015 65.5917 344.995 62.3279C349.974 59.064 355.728 57.4321 362.256 57.4321C367.303 57.4321 371.29 58.2733 374.218 59.9557C377.179 61.6044 379.433 63.4887 380.981 65.6085C382.562 67.6947 383.79 69.4107 384.665 70.7566H385.675V32.6001H397.586V135.966H386.078V124.055H384.665C383.79 125.468 382.545 127.251 380.93 129.405C379.315 131.524 377.01 133.426 374.016 135.108C371.021 136.757 367.034 137.581 362.054 137.581ZM363.669 126.881C368.447 126.881 372.485 125.636 375.782 123.146C379.08 120.623 381.586 117.14 383.303 112.699C385.019 108.223 385.877 103.058 385.877 97.2037C385.877 91.4163 385.035 86.3523 383.353 82.0118C381.671 77.6376 379.181 74.2392 375.883 71.8165C372.586 69.3602 368.514 68.1321 363.669 68.1321C358.622 68.1321 354.416 69.4275 351.051 72.0184C347.72 74.5756 345.213 78.0582 343.531 82.466C341.882 86.8402 341.058 91.7528 341.058 97.2037C341.058 102.722 341.899 107.735 343.581 112.244C345.297 116.719 347.821 120.286 351.152 122.944C354.517 125.569 358.689 126.881 363.669 126.881Z"
     fill="#0D222D"
     id="path12"
     style="fill:#f2f2f2" />
  <path
     d="M291.287 137.389C283.817 137.389 277.374 135.74 271.956 132.443C266.573 129.112 262.417 124.468 259.49 118.513C256.596 112.523 255.149 105.558 255.149 97.6175C255.149 89.6766 256.596 82.6779 259.49 76.6213C262.417 70.5311 266.489 65.7868 271.704 62.3883C276.953 58.9563 283.077 57.2402 290.076 57.2402C294.113 57.2402 298.101 57.9132 302.038 59.2591C305.974 60.605 309.558 62.7921 312.788 65.8204C316.018 68.8151 318.592 72.7855 320.51 77.7317C322.428 82.6779 323.387 88.7682 323.387 96.0024V101.05H263.629V90.7534H311.274C311.274 86.3792 310.399 82.476 308.649 79.044C306.933 75.6119 304.477 72.9033 301.28 70.918C298.118 68.9328 294.383 67.9402 290.076 67.9402C285.331 67.9402 281.226 69.1179 277.761 71.4732C274.329 73.7949 271.687 76.8232 269.837 80.5581C267.986 84.293 267.061 88.2971 267.061 92.5703V99.4345C267.061 105.289 268.07 110.252 270.089 114.324C272.142 118.361 274.985 121.44 278.619 123.56C282.253 125.646 286.475 126.689 291.287 126.689C294.416 126.689 297.243 126.252 299.766 125.377C302.324 124.468 304.527 123.122 306.378 121.339C308.229 119.522 309.659 117.268 310.668 114.576L322.176 117.806C320.964 121.709 318.929 125.141 316.069 128.102C313.209 131.03 309.676 133.318 305.47 134.966C301.264 136.582 296.536 137.389 291.287 137.389Z"
     fill="#0D222D"
     id="path14"
     style="fill:#f2f2f2" />
  <path
     d="M249.39 64.715H236.873C236.133 61.1147 234.837 57.9518 232.986 55.2264C231.169 52.5009 228.949 50.2129 226.324 48.3622C223.733 46.478 220.856 45.0648 217.694 44.1226C214.531 43.1805 211.233 42.7094 207.801 42.7094C201.543 42.7094 195.873 44.2909 190.792 47.4537C185.745 50.6166 181.724 55.2768 178.729 61.4344C175.768 67.5919 174.288 75.1458 174.288 84.0961C174.288 93.0464 175.768 100.6 178.729 106.758C181.724 112.915 185.745 117.576 190.792 120.738C195.873 123.901 201.543 125.483 207.801 125.483C211.233 125.483 214.531 125.012 217.694 124.07C220.856 123.127 223.733 121.731 226.324 119.88C228.949 117.996 231.169 115.691 232.986 112.966C234.837 110.207 236.133 107.044 236.873 103.477H249.39C248.448 108.76 246.732 113.487 244.242 117.66C241.752 121.832 238.656 125.382 234.955 128.309C231.254 131.203 227.098 133.407 222.488 134.921C217.912 136.435 213.017 137.192 207.801 137.192C198.985 137.192 191.146 135.039 184.281 130.732C177.417 126.425 172.017 120.301 168.08 112.36C164.143 104.419 162.175 94.998 162.175 84.0961C162.175 73.1943 164.143 63.7729 168.08 55.832C172.017 47.8912 177.417 41.7673 184.281 37.4604C191.146 33.1535 198.985 31 207.801 31C213.017 31 217.912 31.7571 222.488 33.2712C227.098 34.7854 231.254 37.0061 234.955 39.9335C238.656 42.8272 241.752 46.3602 244.242 50.5325C246.732 54.6712 248.448 59.3987 249.39 64.715Z"
     fill="#0D222D"
     id="path16"
     style="fill:#f2f2f2" />
</svg>
