<svg width="254" height="41" viewBox="0 0 254 41" fill="none" xmlns="http://www.w3.org/2000/svg">
<g clip-path="url(#clip0)">
<path d="M8.30749 9.23997V16.2333C8.30749 16.4459 8.49394 16.6181 8.72183 16.6181H18.4691C18.697 16.6181 18.8835 16.7903 18.8835 17.003V23.9912C18.8835 24.2039 18.697 24.3761 18.4691 24.3761H8.71665C8.48876 24.3761 8.30231 24.5482 8.30231 24.7609V39.5122C8.30231 39.7248 8.11586 39.897 7.88797 39.897H0.414339C0.186452 39.897 0 39.7248 0 39.5122V1.48203C0 1.26934 0.186452 1.09717 0.414339 1.09717H20.3233C20.5512 1.09717 20.7377 1.26934 20.7377 1.48203V8.47025C20.7377 8.68294 20.5512 8.85511 20.3233 8.85511H8.72183C8.48876 8.85511 8.30749 9.02729 8.30749 9.23997Z" fill="#F72A30"/>
<path d="M28.4857 39.5172V1.48203C28.4857 1.26934 28.6722 1.09717 28.9001 1.09717H36.3789C36.6068 1.09717 36.7932 1.26934 36.7932 1.48203V39.5172C36.7932 39.7299 36.6068 39.9021 36.3789 39.9021H28.9001C28.6722 39.9021 28.4857 39.7299 28.4857 39.5172Z" fill="#F72A30"/>
<path d="M53.8021 17.1549C53.8021 17.3676 53.9886 17.5398 54.2165 17.5398H61.1204C66.7554 17.5398 66.7554 8.85511 61.1204 8.85511H54.2165C53.9886 8.85511 53.8021 9.02729 53.8021 9.23997V17.1549ZM66.0562 39.6995L57.9248 25.2926C57.8523 25.166 57.7124 25.085 57.5571 25.085H54.2113C53.9834 25.085 53.7969 25.2572 53.7969 25.4699V39.5172C53.7969 39.7299 53.6105 39.9021 53.3826 39.9021H45.909C45.6811 39.9021 45.4946 39.7299 45.4946 39.5172V1.48203C45.4946 1.26934 45.6811 1.09717 45.909 1.09717H61.8766C76.4872 1.09717 78.0979 20.0667 66.4239 23.7532C66.1753 23.8292 66.0666 24.0976 66.1909 24.3102L75.239 39.3299C75.3944 39.5881 75.1975 39.9021 74.8816 39.9021H66.4291C66.2685 39.9021 66.1287 39.8261 66.0562 39.6995Z" fill="#F72A30"/>
<path d="M129.735 32.1697H127.352H122.769C122.541 32.1697 122.354 31.9976 122.354 31.7849V24.7916C122.354 24.5789 122.541 24.4067 122.769 24.4067H129.735C130.874 24.4067 131.884 24.7916 132.625 25.4347C132.899 25.6727 132.718 26.1032 132.34 26.1032H127.72C127.601 26.1032 127.487 26.1538 127.409 26.2348C126.834 26.8526 127.295 27.5565 127.927 27.5565H133.852C133.852 27.5616 133.852 27.5616 133.852 27.5666H136.618C136.825 27.5666 137.011 27.7084 137.027 27.9009C137.048 28.1186 136.866 28.2958 136.639 28.2958H134.308C134.095 28.2958 133.919 28.4478 133.899 28.6453C133.697 30.6354 131.972 32.1697 129.735 32.1697ZM118.869 10.8H121.945C122.173 10.8 122.359 10.6278 122.359 10.4151V9.21494C122.359 9.00226 122.546 8.83009 122.774 8.83009H129.74C131.656 8.83009 132.972 9.95428 133.412 11.5241C133.479 11.7672 133.282 12.0102 133.013 12.0102H131.744C131.625 12.0102 131.511 12.0609 131.433 12.1419C130.858 12.7597 131.314 13.4636 131.951 13.4636H133.515C133.515 13.4686 133.515 13.4686 133.515 13.4737H135.82C136.027 13.4737 136.214 13.6155 136.229 13.8029C136.25 14.0206 136.069 14.1979 135.841 14.1979H133.614C133.443 14.1979 133.293 14.2941 133.231 14.4409C132.666 15.7272 131.444 16.6387 129.745 16.6387H127.362H122.779C122.551 16.6387 122.365 16.4665 122.365 16.2538V11.909C122.365 11.6963 122.178 11.5241 121.95 11.5241H118.853C118.625 11.5241 118.444 11.3418 118.465 11.1291C118.48 10.9417 118.667 10.8 118.869 10.8ZM133.982 35.3853H139.948C140.078 35.3853 140.202 35.3296 140.28 35.2284C141.792 33.2939 142.693 30.8886 142.693 28.2604C142.693 25.3891 141.295 22.5635 138.834 20.7962C138.622 20.6442 138.622 20.3455 138.834 20.1885C141.134 18.4617 142.118 15.6056 142.232 12.8407C142.408 5.99935 137.814 1.06201 130.439 1.06201H114.409C114.181 1.06201 113.995 1.23419 113.995 1.44687V34.2662C113.995 34.4789 113.808 34.6511 113.581 34.6511H109.629C109.51 34.6511 109.396 34.7017 109.318 34.7827C108.743 35.4005 109.199 36.1044 109.836 36.1044H113.995V36.1146H118.527C118.734 36.1146 118.915 36.2563 118.936 36.4488C118.957 36.6665 118.775 36.8438 118.547 36.8438H114.409C114.181 36.8438 113.995 37.0159 113.995 37.2286V39.5327C113.995 39.7454 114.181 39.9176 114.409 39.9176H130.434C133.671 39.9176 136.628 38.7275 138.824 36.7678C139.093 36.5298 138.912 36.1044 138.539 36.1044H133.961C133.733 36.1044 133.552 35.9221 133.572 35.7094C133.588 35.5271 133.774 35.3853 133.982 35.3853Z" fill="#F72A30"/>
<path d="M189.021 21.2925H184.049C183.391 21.2925 182.822 21.7432 182.728 22.3559C182.692 22.599 182.651 22.8471 182.599 23.0902C182.438 23.87 181.713 24.4372 180.864 24.4372H172.541C172.111 24.4372 171.759 24.7613 171.759 25.1664C171.759 25.5665 172.111 25.8956 172.541 25.8956H181.661C181.661 25.9007 181.656 25.9007 181.656 25.9057H183.215C183.422 25.9057 183.604 26.0475 183.624 26.2349C183.645 26.4527 183.464 26.6299 183.236 26.6299H182.951C181.962 26.6299 181.05 27.0907 180.481 27.8452C178.435 30.5696 175.079 32.4686 170.407 32.4686C161.856 32.4686 157.707 26.1134 157.961 19.9455C158.008 18.7605 157.003 17.7781 155.734 17.7781H153.419C153.212 17.7781 153.025 17.6363 153.01 17.449C152.989 17.2312 153.17 17.054 153.398 17.054H156.413C157.547 17.054 158.562 16.4109 158.992 15.4285C160.696 11.5191 164.503 8.48582 170.412 8.48582C177.311 8.48582 181.346 12.6231 182.511 17.4642C182.713 18.3048 182.029 19.1049 181.107 19.1049H180.123C180.004 19.1049 179.89 19.1555 179.812 19.2365C179.238 19.8543 179.693 20.5582 180.33 20.5582H182.868C182.868 20.5633 182.868 20.5684 182.868 20.5684H189.042C189.27 20.5684 189.451 20.7507 189.43 20.9633C189.415 21.1507 189.228 21.2925 189.021 21.2925ZM190.202 13.1294H187.069C186.861 13.1294 186.68 12.9877 186.659 12.8003C186.639 12.5825 186.82 12.4053 187.048 12.4053H188.405C189.27 12.4053 189.829 11.5495 189.435 10.8304C186.255 4.92081 179.911 0.5 170.412 0.5C162.301 0.5 156.49 3.72066 152.984 8.33897C152.316 9.22009 151.218 9.73661 150.058 9.73661H147.049C146.929 9.73661 146.816 9.78725 146.738 9.86827C146.163 10.4861 146.619 11.19 147.256 11.19H151.192C151.192 11.195 151.187 11.195 151.187 11.2001H155.947C156.154 11.2001 156.335 11.3419 156.356 11.5343C156.376 11.7521 156.195 11.9293 155.967 11.9293H152.637C151.503 11.9293 150.503 12.6129 150.146 13.6206C146.028 25.2829 152.787 40.4949 170.412 40.4949C188.156 40.4949 194.884 25.0753 190.59 13.3826C190.533 13.2358 190.378 13.1294 190.202 13.1294Z" fill="#F72A30"/>
<path d="M218.439 36.7776H220.848C222.018 36.7776 222.966 35.8915 222.966 34.7976V32.5341C222.966 32.3214 222.779 32.1492 222.552 32.1492H210.194C209.966 32.1492 209.78 31.977 209.78 31.7643V15.7015C209.78 15.0635 209.225 14.5419 208.542 14.5419H207.692C207.485 14.5419 207.304 14.4001 207.283 14.2128C207.262 13.995 207.444 13.8178 207.672 13.8178H209.37C209.598 13.8178 209.785 13.6456 209.785 13.4329V1.48203C209.785 1.26934 209.598 1.09717 209.37 1.09717H201.892C201.664 1.09717 201.477 1.26934 201.477 1.48203V3.15819C201.477 3.81144 200.913 4.33808 200.213 4.33808H194.268C194.149 4.33808 194.035 4.38872 193.957 4.46975C193.382 5.08755 193.838 5.7965 194.475 5.7965H201.482V5.80662H203.171C203.378 5.80662 203.559 5.94842 203.58 6.13578C203.601 6.35353 203.419 6.53077 203.192 6.53077H201.897C201.669 6.53077 201.482 6.70294 201.482 6.91563V20.1376C201.482 20.3502 201.296 20.5224 201.068 20.5224H198.587C198.468 20.5224 198.354 20.5731 198.276 20.6541C197.702 21.2719 198.157 21.9758 198.794 21.9758H201.482V21.9859H203.927C204.134 21.9859 204.315 22.1277 204.336 22.315C204.357 22.5328 204.176 22.71 203.948 22.71H202.762C202.057 22.71 201.482 23.2468 201.482 23.9051V31.8707C201.482 32.5847 200.866 33.162 200.105 33.162H194.273C194.154 33.162 194.04 33.2126 193.962 33.2937C193.387 33.9115 193.843 34.6153 194.48 34.6153H201.488V34.6255H203.176C203.383 34.6255 203.564 34.7673 203.585 34.9546C203.606 35.1724 203.425 35.3496 203.197 35.3496H202.047C201.736 35.3496 201.488 35.5825 201.488 35.8712C201.488 36.1598 201.239 36.3928 200.928 36.3928H197.121C197.002 36.3928 196.888 36.4434 196.811 36.5244C196.236 37.1422 196.692 37.8461 197.329 37.8461H201.488V37.8563H206.019C206.227 37.8563 206.408 37.998 206.429 38.1905C206.449 38.4082 206.268 38.5855 206.04 38.5855H202.182C201.798 38.5855 201.488 38.8741 201.488 39.2336C201.488 39.5932 201.798 39.8818 202.182 39.8818H222.567C222.795 39.8818 222.981 39.7097 222.981 39.497V37.8664C222.981 37.6537 222.795 37.4815 222.567 37.4815H218.429C218.201 37.4815 218.02 37.2992 218.04 37.0865C218.046 36.9144 218.232 36.7776 218.439 36.7776Z" fill="#F72A30"/>
<path d="M249.468 2.95619H253.244C253.658 2.95619 253.995 2.64223 253.995 2.2523V1.50791C253.995 1.29522 253.808 1.12305 253.58 1.12305H230.325H225.012H222.008C221.578 1.12305 221.226 1.44714 221.226 1.85225C221.226 2.2523 221.573 2.58146 222.008 2.58146H225.012V2.59159H230.698C230.906 2.59159 231.087 2.73338 231.108 2.92581C231.128 3.14356 230.947 3.32079 230.719 3.32079H225.965C225.436 3.32079 225.012 3.72084 225.012 4.21205V5.40207C225.012 6.01481 225.54 6.51107 226.198 6.51107H227.182C227.389 6.51107 227.57 6.65286 227.591 6.84023C227.612 7.05798 227.43 7.23521 227.202 7.23521H225.949C225.431 7.23521 225.012 7.62514 225.012 8.11127C225.012 8.51132 225.359 8.83035 225.783 8.83035H234.935C235.163 8.83035 235.349 9.00252 235.349 9.21521V14.7501C235.349 14.9628 235.163 15.1349 234.935 15.1349H227.995C227.876 15.1349 227.762 15.1856 227.684 15.2666C227.109 15.8844 227.565 16.5883 228.202 16.5883H235.349V16.5984H236.893C237.1 16.5984 237.281 16.7402 237.302 16.9276C237.323 17.1453 237.141 17.3226 236.913 17.3226H235.764C235.536 17.3226 235.349 17.4947 235.349 17.7074V27.8404C235.349 28.053 235.163 28.2252 234.935 28.2252H233.143C232.713 28.2252 232.361 28.5493 232.361 28.9544C232.361 29.3545 232.708 29.6836 233.143 29.6836H235.349V29.6938H239.094C239.301 29.6938 239.482 29.8355 239.503 30.028C239.524 30.2457 239.343 30.423 239.115 30.423H235.764C235.536 30.423 235.349 30.5951 235.349 30.8078V33.4816C235.349 33.6943 235.163 33.8664 234.935 33.8664H230.398C229.968 33.8664 229.616 34.1905 229.616 34.5956C229.616 34.9957 229.963 35.3248 230.398 35.3248H235.349V35.335H239.094C239.301 35.335 239.482 35.4768 239.503 35.6641C239.524 35.8819 239.343 36.0591 239.115 36.0591H235.764C235.536 36.0591 235.349 36.2313 235.349 36.444V39.4925C235.349 39.7051 235.536 39.8773 235.764 39.8773H242.963C243.346 39.8773 243.657 39.5887 243.657 39.2291C243.657 38.8696 243.346 38.5809 242.963 38.5809H239.135C238.928 38.5809 238.747 38.4392 238.726 38.2518C238.705 38.034 238.887 37.8568 239.115 37.8568H242.248C243.025 37.8568 243.657 37.2694 243.657 36.5402V25.1008C243.657 24.8881 243.47 24.7159 243.243 24.7159H242.124C241.917 24.7159 241.735 24.5741 241.715 24.3867C241.694 24.169 241.875 23.9918 242.103 23.9918H243.243C243.47 23.9918 243.657 23.8196 243.657 23.6069V13.6563C243.657 13.3221 243.367 13.0486 243.004 13.0486H239.135C238.928 13.0486 238.747 12.9068 238.726 12.7144C238.705 12.4966 238.887 12.3194 239.115 12.3194H241.844C242.844 12.3194 243.657 11.5598 243.657 10.623V9.21521C243.657 9.00252 243.843 8.83035 244.071 8.83035H253.585C253.813 8.83035 254 8.65818 254 8.44549V7.93404C254 7.54918 253.663 7.23521 253.249 7.23521H252.529C252.322 7.23521 252.135 7.09342 252.12 6.90099C252.099 6.68324 252.28 6.50601 252.508 6.50601H253.166C253.627 6.50601 254 6.1566 254 5.73123V4.31839C254 3.96898 253.699 3.6854 253.326 3.6854H249.452C249.225 3.6854 249.043 3.50309 249.064 3.29041C249.074 3.09798 249.261 2.95619 249.468 2.95619Z" fill="#F72A30"/>
<path d="M105.268 39.5172V32.529C105.268 32.3163 105.081 32.1441 104.854 32.1441H92.4959C92.268 32.1441 92.0816 31.972 92.0816 31.7593V24.766C92.0816 24.5533 92.268 24.3811 92.4959 24.3811H102.59C102.818 24.3811 103.005 24.209 103.005 23.9963V21.2516C103.005 21.2466 102.999 21.2466 102.999 21.2415V19.7628C102.999 19.7578 102.999 19.7578 102.999 19.7527V17.008C102.999 16.7954 102.813 16.6232 102.585 16.6232H92.4907C92.2628 16.6232 92.0764 16.451 92.0764 16.2383V9.23997C92.0764 9.02729 92.2628 8.85511 92.4907 8.85511H104.154C104.382 8.85511 104.569 8.68294 104.569 8.47025V1.48203C104.569 1.26934 104.382 1.09717 104.154 1.09717H84.1884C83.9605 1.09717 83.7741 1.26934 83.7741 1.48203V10.1211H83.7689V11.62C83.7637 11.6301 83.7637 11.6403 83.7637 11.6453L83.7585 13.438H83.7689V16.7042H83.7741V25.3129H83.7689L83.7741 26.6396V27.146C83.7741 27.1612 83.7689 27.1714 83.7637 27.1866L83.7585 28.9893H83.7741V28.9944C83.7741 28.9944 83.7741 28.9994 83.7793 28.9994H83.7844L83.7896 30.0527C83.7844 30.073 83.7741 30.0932 83.7741 30.1135V39.5172C83.7741 39.7299 83.9605 39.9021 84.1884 39.9021H104.854C105.081 39.9021 105.268 39.7299 105.268 39.5172Z" fill="#F72A30"/>
</g>
<defs>
<clipPath id="clip0">
<path d="M0 0.5H254V40.5H0V0.5Z" fill="white"/>
</clipPath>
</defs>
</svg>
