<?xml version="1.0" encoding="UTF-8" standalone="no"?>
<!-- Generator: Adobe Illustrator 27.2.0, SVG Export Plug-In . SVG Version: 6.00 Build 0)  -->

<svg
   version="1.1"
   id="Layer_1"
   x="0px"
   y="0px"
   viewBox="0 0 512.03302 137.54509"
   xml:space="preserve"
   sodipodi:docname="quantco_Logo.svg"
   width="512.03302"
   height="137.54509"
   inkscape:version="1.2.2 (b0a8486541, 2022-12-01)"
   xmlns:inkscape="http://www.inkscape.org/namespaces/inkscape"
   xmlns:sodipodi="http://sodipodi.sourceforge.net/DTD/sodipodi-0.dtd"
   xmlns="http://www.w3.org/2000/svg"
   xmlns:svg="http://www.w3.org/2000/svg"><defs
   id="defs25" /><sodipodi:namedview
   id="namedview23"
   pagecolor="#ffffff"
   bordercolor="#000000"
   borderopacity="0.25"
   inkscape:showpageshadow="2"
   inkscape:pageopacity="0.0"
   inkscape:pagecheckerboard="0"
   inkscape:deskcolor="#d1d1d1"
   showgrid="false"
   inkscape:zoom="0.2979798"
   inkscape:cx="253.37288"
   inkscape:cy="58.728814"
   inkscape:window-width="2327"
   inkscape:window-height="1241"
   inkscape:window-x="0"
   inkscape:window-y="0"
   inkscape:window-maximized="1"
   inkscape:current-layer="Layer_1" />
<style
   type="text/css"
   id="style2">
	.st0{fill:#FFFFFF;}
</style>
<g
   id="g18"
   transform="translate(-53.45,-337.92895)">
	<path
   class="st0"
   d="m 86.03,457.48 c -0.41,-0.37 -0.61,-0.87 -0.61,-1.49 v -19.33 c -3.07,4.03 -7.53,6.05 -13.38,6.05 -5.79,0 -10.27,-1.83 -13.42,-5.49 -3.16,-3.66 -4.85,-8.47 -5.08,-14.44 l -0.09,-3.07 0.09,-3.07 c 0.23,-6.07 1.91,-10.91 5.04,-14.52 3.13,-3.61 7.62,-5.41 13.47,-5.41 6.08,0 10.71,2.1 13.9,6.3 v -3.41 c 0,-0.62 0.2,-1.12 0.61,-1.49 0.4,-0.37 0.9,-0.55 1.48,-0.55 h 7.04 c 0.64,0 1.14,0.19 1.52,0.55 0.38,0.37 0.56,0.87 0.56,1.49 v 56.38 c 0,0.62 -0.19,1.12 -0.56,1.49 -0.38,0.37 -0.88,0.55 -1.52,0.55 h -7.56 c -0.59,0.02 -1.09,-0.17 -1.49,-0.54 z m -3.35,-26.95 c 1.71,-1.99 2.62,-4.4 2.74,-7.24 0.06,-0.74 0.09,-1.84 0.09,-3.32 0,-1.48 -0.03,-2.56 -0.09,-3.24 -0.17,-3.07 -1.07,-5.63 -2.69,-7.71 -1.62,-2.07 -4.08,-3.11 -7.39,-3.11 -6.14,0 -9.41,3.75 -9.82,11.24 -0.06,0.57 -0.09,1.42 -0.09,2.56 0,1.14 0.03,1.99 0.09,2.56 0.4,7.5 3.68,11.24 9.82,11.24 3.19,0 5.63,-1 7.34,-2.98 z"
   id="path4" />
	<path
   class="st0"
   d="m 114.96,437.59 c -3.07,-3.41 -4.6,-8.09 -4.6,-14.05 v -23.93 c 0,-0.62 0.2,-1.12 0.61,-1.49 0.4,-0.37 0.9,-0.55 1.48,-0.55 h 7.82 c 0.58,0 1.07,0.2 1.48,0.6 0.4,0.4 0.61,0.88 0.61,1.45 v 23.42 c 0,6.98 3.1,10.48 9.3,10.48 3.01,0 5.4,-0.94 7.17,-2.81 1.77,-1.87 2.65,-4.43 2.65,-7.67 v -23.42 c 0,-0.62 0.2,-1.12 0.61,-1.49 0.4,-0.37 0.9,-0.55 1.48,-0.55 h 7.73 c 0.64,0 1.14,0.19 1.52,0.55 0.38,0.37 0.56,0.87 0.56,1.49 v 40.2 c 0,0.57 -0.19,1.05 -0.56,1.45 -0.38,0.4 -0.88,0.6 -1.52,0.6 h -7.21 c -0.58,0 -1.07,-0.2 -1.48,-0.6 -0.41,-0.4 -0.61,-0.88 -0.61,-1.45 v -3.49 c -3.19,4.26 -7.99,6.39 -14.42,6.39 -5.35,-0.01 -9.55,-1.72 -12.62,-5.13 z"
   id="path6" />
	<path
   class="st0"
   d="m 172,440.96 c -2.46,-1.16 -4.4,-2.74 -5.82,-4.73 -1.42,-1.99 -2.13,-4.17 -2.13,-6.56 0,-3.86 1.59,-6.98 4.78,-9.37 3.18,-2.38 7.56,-4 13.12,-4.85 l 11.9,-1.7 v -1.79 c 0,-2.44 -0.64,-4.29 -1.91,-5.54 -1.27,-1.25 -3.3,-1.87 -6.08,-1.87 -1.91,0 -3.45,0.34 -4.61,1.02 -1.16,0.68 -2.1,1.38 -2.82,2.09 -0.72,0.71 -1.2,1.18 -1.43,1.41 -0.23,0.68 -0.67,1.02 -1.3,1.02 h -6.78 c -0.52,0 -0.97,-0.17 -1.35,-0.51 -0.38,-0.34 -0.56,-0.79 -0.56,-1.36 0.06,-1.42 0.77,-3.02 2.13,-4.81 1.36,-1.79 3.46,-3.35 6.3,-4.68 2.84,-1.33 6.34,-2 10.51,-2 6.83,0 11.82,1.51 14.94,4.51 3.13,3.01 4.69,6.96 4.69,11.84 v 26.74 c 0,0.57 -0.19,1.05 -0.56,1.45 -0.38,0.4 -0.88,0.6 -1.52,0.6 h -7.21 c -0.58,0 -1.07,-0.2 -1.48,-0.6 -0.41,-0.4 -0.61,-0.88 -0.61,-1.45 v -3.32 c -1.27,1.82 -3.07,3.31 -5.39,4.47 -2.32,1.16 -5.21,1.75 -8.69,1.75 -2.95,-0.01 -5.66,-0.6 -8.12,-1.76 z m 18.89,-9.5 c 2.03,-2.04 3.04,-5 3.04,-8.86 v -1.7 l -8.69,1.36 c -6.66,1.02 -9.99,3.21 -9.99,6.56 0,1.82 0.77,3.22 2.3,4.22 1.53,0.99 3.37,1.49 5.52,1.49 3.19,0 5.8,-1.02 7.82,-3.07 z"
   id="path8" />
	<path
   class="st0"
   d="m 219.48,441.26 c -0.41,-0.4 -0.61,-0.88 -0.61,-1.45 v -40.2 c 0,-0.62 0.2,-1.12 0.61,-1.49 0.4,-0.37 0.9,-0.55 1.48,-0.55 h 7.21 c 0.64,0 1.14,0.19 1.52,0.55 0.38,0.37 0.56,0.87 0.56,1.49 v 3.49 c 3.53,-4.26 8.37,-6.39 14.51,-6.39 5.33,0 9.56,1.7 12.68,5.11 3.13,3.41 4.69,8.09 4.69,14.05 v 23.93 c 0,0.57 -0.19,1.05 -0.57,1.45 -0.38,0.4 -0.88,0.6 -1.52,0.6 h -7.82 c -0.58,0 -1.07,-0.2 -1.48,-0.6 -0.41,-0.4 -0.61,-0.88 -0.61,-1.45 v -23.42 c 0,-3.29 -0.83,-5.86 -2.48,-7.71 -1.65,-1.84 -4.01,-2.77 -7.08,-2.77 -2.95,0 -5.33,0.94 -7.12,2.81 -1.8,1.87 -2.69,4.43 -2.69,7.66 v 23.42 c 0,0.57 -0.19,1.05 -0.56,1.45 -0.38,0.4 -0.88,0.6 -1.52,0.6 h -7.73 c -0.57,0.01 -1.07,-0.18 -1.47,-0.58 z"
   id="path10" />
	<path
   class="st0"
   d="m 283.42,437.81 c -2.66,-2.7 -4,-6.66 -4,-11.88 v -19.25 h -6.86 c -0.58,0 -1.07,-0.2 -1.48,-0.6 -0.41,-0.4 -0.61,-0.88 -0.61,-1.45 v -5.02 c 0,-0.57 0.2,-1.05 0.61,-1.45 0.4,-0.4 0.9,-0.6 1.48,-0.6 h 6.86 v -14.14 c 0,-0.62 0.2,-1.12 0.61,-1.49 0.4,-0.37 0.9,-0.55 1.48,-0.55 h 7.21 c 0.64,0 1.14,0.18 1.52,0.55 0.38,0.37 0.57,0.87 0.57,1.49 v 14.14 h 10.86 c 0.58,0 1.07,0.2 1.48,0.6 0.4,0.4 0.61,0.88 0.61,1.45 v 5.02 c 0,0.57 -0.2,1.05 -0.61,1.45 -0.41,0.4 -0.9,0.6 -1.48,0.6 h -10.86 v 18.31 c 0,2.44 0.43,4.29 1.3,5.54 0.87,1.25 2.29,1.87 4.26,1.87 h 6.08 c 0.64,0 1.14,0.18 1.52,0.55 0.38,0.37 0.56,0.87 0.56,1.49 v 5.37 c 0,0.57 -0.19,1.05 -0.56,1.45 -0.38,0.4 -0.88,0.6 -1.52,0.6 h -7.12 c -5.28,-0.01 -9.24,-1.35 -11.91,-4.05 z"
   id="path12" />
	<path
   class="st0"
   d="m 318.74,437.51 c -3.79,-3.46 -5.81,-8.26 -6.04,-14.39 l -0.09,-3.41 0.09,-3.41 c 0.23,-6.13 2.24,-10.93 6.04,-14.39 3.79,-3.46 8.88,-5.2 15.25,-5.2 4.58,0 8.44,0.8 11.6,2.38 3.16,1.59 5.5,3.53 7.04,5.83 1.53,2.3 2.36,4.5 2.48,6.6 0.06,0.57 -0.13,1.05 -0.56,1.45 -0.43,0.4 -0.94,0.6 -1.52,0.6 h -7.73 c -0.64,0 -1.1,-0.13 -1.39,-0.38 -0.29,-0.26 -0.58,-0.72 -0.87,-1.41 -0.87,-2.16 -2.01,-3.72 -3.43,-4.68 -1.42,-0.97 -3.23,-1.45 -5.43,-1.45 -2.95,0 -5.26,0.91 -6.91,2.72 -1.65,1.82 -2.53,4.6 -2.65,8.35 l -0.09,3.15 0.09,2.81 c 0.35,7.38 3.53,11.07 9.56,11.07 2.26,0 4.08,-0.47 5.47,-1.41 1.39,-0.94 2.52,-2.51 3.39,-4.73 0.23,-0.62 0.51,-1.08 0.83,-1.36 0.32,-0.28 0.8,-0.43 1.43,-0.43 h 7.73 c 0.58,0 1.09,0.2 1.52,0.6 0.43,0.4 0.62,0.88 0.56,1.45 -0.12,1.99 -0.93,4.13 -2.43,6.43 -1.51,2.3 -3.82,4.27 -6.95,5.92 -3.13,1.65 -7.04,2.47 -11.73,2.47 -6.38,0.02 -11.47,-1.72 -15.26,-5.18 z"
   id="path14" />
	<path
   class="st0"
   d="m 370.57,437.59 c -3.71,-3.41 -5.71,-8.12 -5.99,-14.14 l -0.09,-3.75 0.09,-3.75 c 0.29,-5.96 2.32,-10.66 6.08,-14.09 3.76,-3.43 9.01,-5.15 15.73,-5.15 6.66,0 11.87,1.72 15.64,5.15 3.76,3.44 5.79,8.13 6.08,14.09 0.06,0.68 0.09,1.93 0.09,3.75 0,1.82 -0.03,3.07 -0.09,3.75 -0.29,6.02 -2.29,10.73 -5.99,14.14 -3.71,3.41 -8.95,5.11 -15.73,5.11 -6.85,0.01 -12.12,-1.7 -15.82,-5.11 z m 22.89,-6.3 c 1.65,-1.87 2.53,-4.63 2.65,-8.26 0.06,-0.57 0.09,-1.67 0.09,-3.32 0,-1.65 -0.03,-2.75 -0.09,-3.32 -0.12,-3.63 -1.01,-6.4 -2.69,-8.3 -1.68,-1.9 -4.03,-2.85 -7.04,-2.85 -3.07,0 -5.44,0.95 -7.12,2.85 -1.68,1.9 -2.58,4.67 -2.69,8.3 l -0.09,3.32 0.09,3.32 c 0.12,3.63 1.01,6.39 2.69,8.26 1.68,1.87 4.05,2.81 7.12,2.81 3.07,0 5.43,-0.93 7.08,-2.81 z"
   id="path16" />
</g>
<path
   class="st0"
   d="m 495.34,122.42105 c -1.75,-2.21 -3.44,-4.35 -5.13,-6.49 -3.09,-3.91 -6.17,-7.82 -9.26,-11.72 -0.26,-0.33 -0.4,-0.56 -0.12,-1 2.91,-4.520002 4.42,-9.560002 5.35,-14.800002 0.91,-5.15 1.26,-10.34 1.24,-15.56 -0.02,-5.41 -0.06,-10.84 -0.35,-16.24 -0.35,-6.33 -1.43,-12.56 -4.14,-18.37 -4.28,-9.18 -11.65,-14.35 -21.49,-15.88 -9.23,-1.44 -17.42,1.12 -24.35,7.41 -3.86,3.51 -6.17,8.01 -7.71,12.94 -1.78,5.71 -2.52,11.59 -2.64,17.53 -0.12,6.03 -0.16,12.07 0.04,18.1 0.22,6.83 1.13,13.57 3.83,19.94 4.13,9.720002 11.61,15.180002 21.88,16.970002 4.25,0.74 8.47,0.48 12.62,-0.78 0.35,-0.11 0.58,-0.09 0.85,0.24 4.7,5.99 9.41,11.96 14.11,17.94 0.03,0.04 0.05,0.09 0.11,0.22 -0.25,0.11 -0.49,0.23 -0.73,0.34 -6.94,2.89 -14.19,4.25 -21.69,4.33 -8.34,0.09 -16.38,-1.32 -23.99,-4.78 -14.15,-6.45 -23.34,-17.3 -28.06,-32.02 -1.77,-5.500002 -2.74,-11.170002 -3.09,-16.920002 -0.33,-5.45 -0.55,-10.92 -0.58,-16.38 -0.03,-7.07 0.33,-14.12 1.48,-21.12 1.63,-9.91 5.05,-19.05 11.42,-26.94 7.2,-8.92 16.37,-14.7599998 27.47,-17.4999998 12.94,-3.2 25.64,-2.38999995 37.9,2.99 10.73,4.71 18.7,12.4599998 24.22,22.7599998 3.25,6.07 5.06,12.6 6.12,19.36 0.89,5.69 1.22,11.43 1.33,17.18 0.13,6.76 0.05,13.51 -0.56,20.25 -0.78,8.63 -2.54,17.020002 -6.49,24.830002 -2.49,4.85 -5.68,9.21 -9.59,13.17 z"
   id="path20" />
</svg>
