<?xml version="1.0" standalone="no"?>
<!DOCTYPE svg PUBLIC "-//W3C//DTD SVG 1.1//EN" "http://www.w3.org/Graphics/SVG/1.1/DTD/svg11.dtd">
<svg xmlns="http://www.w3.org/2000/svg" xmlns:xlink="http://www.w3.org/1999/xlink" version="1.1" id="Layer_1" x="0px" y="0px" viewBox="0 0 273 65" style="enable-background:new 0 0 273 65;" xml:space="preserve" width="273" height="65">
<style type="text/css">
	.st0{fill-rule:evenodd;clip-rule:evenodd;fill:#29B5E8;}
</style>
<g id="logo-sno-blue">
	<path id="Snowflake-Logo" class="st0" d="M166.4,22.1L166.4,22.1C166.4,22.1,166.4,22.1,166.4,22.1c-0.2-0.1-0.4-0.1-0.6-0.1   c-0.3,0-0.6,0.1-0.8,0.3c-0.3,0.2-0.5,0.4-0.6,0.7v0l-5.9,16.2l-4.6-10.8l0,0c-0.1-0.3-0.4-0.5-0.6-0.7c-0.3-0.2-0.6-0.3-0.9-0.3   c-0.3,0-0.6,0.1-0.9,0.3c-0.3,0.2-0.5,0.4-0.6,0.7l0,0l-4.6,10.8l-5.9-16.2h0c-0.1-0.3-0.3-0.6-0.6-0.7c-0.3-0.2-0.6-0.3-0.9-0.3   c-0.2,0-0.4,0-0.6,0.1h0l0,0c-0.6,0.3-0.9,0.8-0.9,1.4c0,0.2,0,0.4,0.1,0.6h0l7.3,19.6v0c0.1,0.1,0.1,0.3,0.3,0.4   c0.1,0.1,0.2,0.2,0.3,0.3c0,0,0.1,0.1,0.1,0.1c0.1,0,0.1,0.1,0.2,0.1c0.1,0,0.3,0.1,0.5,0.1c0.3,0,0.6-0.1,0.8-0.3   c0.2-0.2,0.4-0.4,0.5-0.7l0,0l4.6-11l4.6,11h0c0.1,0.3,0.3,0.5,0.5,0.7c0.2,0.2,0.5,0.3,0.8,0.3h0.2c0.2,0,0.4,0,0.5-0.1   c0.2-0.1,0.3-0.1,0.4-0.2c0.2-0.2,0.4-0.4,0.6-0.7v0l7.3-19.5c0.1-0.2,0.1-0.4,0.1-0.6C167.3,22.9,167,22.3,166.4,22.1z M133,33.3   c0-2.3-0.9-4.4-2.3-5.9c-1.4-1.5-3.3-2.4-5.4-2.4c-2.1,0-4,0.9-5.4,2.4c-1.4,1.5-2.3,3.6-2.3,5.9c0,2.3,0.9,4.4,2.3,5.9   c1.4,1.5,3.3,2.4,5.4,2.4c2.1,0,4-0.9,5.4-2.4C132.1,37.6,133,35.6,133,33.3z M133,25.3c2,2.1,3.1,4.9,3.1,8c0,3.1-1.2,5.9-3.1,8   c-1.9,2.1-4.6,3.4-7.7,3.4c-3,0-5.7-1.3-7.6-3.4c-1.9-2.1-3.2-4.9-3.2-8s1.2-5.9,3.2-8c1.9-2.1,4.7-3.4,7.6-3.4   C128.3,21.9,131,23.2,133,25.3z M102.2,21.9c-2.4,0-4.6,0.9-6.3,2.4v-0.9c0-0.4-0.2-0.8-0.4-1.1c-0.3-0.3-0.7-0.5-1.1-0.5   c-0.4,0-0.8,0.2-1.1,0.5c-0.3,0.3-0.4,0.7-0.4,1.1v20.1l0.1,0.1l0,0c0,0.1,0.1,0.1,0.1,0.2c0.2,0.4,0.6,0.7,1,0.8l0.1,0h0.3   c0.2,0,0.4,0,0.7-0.1c0.2-0.1,0.3-0.2,0.5-0.4l0,0c0,0,0,0,0-0.1c0,0,0,0,0,0c0.1-0.1,0.2-0.2,0.2-0.3c0-0.1,0.1-0.2,0.1-0.3l0-0.1   v-12c0-1.7,0.8-3.3,1.9-4.4c1.1-1.1,2.7-1.8,4.4-1.8c1.7,0,3.3,0.7,4.4,1.8c1.1,1.1,1.8,2.7,1.8,4.4v11.8c0,0.4,0.2,0.8,0.5,1.1   c0.3,0.3,0.7,0.4,1.1,0.4c0.4,0,0.8-0.2,1.1-0.4c0.3-0.3,0.5-0.7,0.5-1.1V31.3C111.6,26.2,107.4,21.9,102.2,21.9z M254.6,31.1   c-0.9-3.6-4-6.1-7.6-6.1c-3.7,0-6.8,2.5-7.7,6.1H254.6z M258,32.5v0.2c0,0.4-0.2,0.8-0.5,1.1c-0.3,0.3-0.7,0.4-1.1,0.4h-17.3   c0.4,4.2,3.8,7.4,7.9,7.4h1c1.3,0,2.6-0.5,3.8-1.2c1.1-0.8,2.1-1.8,2.8-3c0.1-0.2,0.4-0.4,0.6-0.6c0.2-0.1,0.5-0.2,0.7-0.2   c0.3,0,0.5,0.1,0.8,0.2l0,0l0,0c0.4,0.3,0.7,0.8,0.7,1.3c0,0.3-0.1,0.5-0.2,0.8l0,0l0,0c-1,1.5-2.3,2.9-3.9,4   c-1.6,1-3.4,1.7-5.3,1.7h-1c-3,0-5.8-1.3-7.8-3.4c-2-2-3.2-4.9-3.2-8c0-3.1,1.2-6,3.2-8.1c2-2.1,4.8-3.3,7.8-3.3   c2.9,0,5.6,1.2,7.5,3.1C256.5,26.9,257.8,29.5,258,32.5L258,32.5z M186.8,12.6c-0.4,0-0.8,0.2-1.1,0.5c-0.3,0.3-0.5,0.7-0.5,1.1v29   c0,0.4,0.2,0.8,0.5,1.1c0.3,0.3,0.7,0.5,1.1,0.5c0.9,0,1.6-0.7,1.6-1.5v-29C188.4,13.3,187.7,12.6,186.8,12.6z M85.7,32.7   c-1.2-0.6-2.7-1-4.1-1.5c-1.3-0.4-2.6-0.8-3.6-1.3c-0.5-0.3-0.8-0.5-1.1-0.8c-0.2-0.3-0.4-0.6-0.4-1c0-0.6,0.2-1,0.4-1.4   c0.4-0.6,1.1-1.1,1.9-1.4c0.8-0.3,1.6-0.5,2.2-0.5c1.8,0,2.9,0.6,3.7,1.2c0.4,0.3,0.8,0.6,1.1,0.9c0.2,0.1,0.3,0.3,0.5,0.3   c0.2,0.1,0.4,0.2,0.6,0.2c0.1,0,0.3,0,0.4-0.1c0.1-0.1,0.3-0.1,0.4-0.2c0.1-0.1,0.2-0.2,0.3-0.4c0.1-0.1,0.1-0.3,0.1-0.4   c0-0.3-0.1-0.5-0.2-0.8c-0.2-0.4-0.6-0.8-1.1-1.2c-0.7-0.6-1.6-1.2-2.5-1.6c-1-0.4-2-0.7-3-0.7c-2.3,0-4.2,0.5-5.6,1.5   c-0.7,0.5-1.4,1-1.8,1.8c-0.5,0.8-0.7,1.7-0.7,2.9c0,0.1,0,0.1,0,0.2c0,1.2,0.4,2.2,1,2.9c0.9,1.1,2.3,1.8,3.6,2.3   c1.3,0.5,2.6,0.8,3.5,1.1c1.2,0.4,2.4,0.8,3.3,1.4c0.5,0.3,0.8,0.6,1.1,0.9c0.2,0.3,0.4,0.7,0.4,1.2v0c0,0.7-0.2,1.2-0.5,1.6   c-0.5,0.7-1.3,1.1-2.1,1.4c-0.8,0.3-1.7,0.4-2.3,0.4c-2,0-3.3-0.5-4.3-1c-0.5-0.2-0.9-0.5-1.2-0.7c-0.2-0.1-0.3-0.2-0.5-0.3   c-0.2-0.1-0.4-0.1-0.6-0.1c-0.1,0-0.3,0-0.4,0.1c-0.1,0.1-0.2,0.1-0.3,0.2c-0.1,0.1-0.3,0.3-0.3,0.4c-0.1,0.2-0.1,0.3-0.1,0.5   c0,0.3,0.1,0.6,0.3,0.8c0.3,0.4,0.6,0.7,1.1,1c0.5,0.3,1,0.6,1.7,0.9c1.5,0.7,3.3,1,4.7,1.1h0c2.2,0,4.1-0.5,5.7-1.7v0h0   c1.6-1.2,2.5-2.9,2.5-4.9c0-1.1-0.3-2-0.7-2.8C88.1,34.1,87,33.3,85.7,32.7z M210.2,33.3c0-2.3-0.9-4.4-2.3-5.9   c-1.4-1.5-3.3-2.4-5.4-2.4c-2.1,0-4,0.9-5.4,2.4c-1.4,1.5-2.3,3.6-2.3,5.9c0,2.3,0.9,4.4,2.3,5.9c1.4,1.5,3.3,2.4,5.4,2.4   c2.1,0,4-0.9,5.4-2.4C209.3,37.7,210.2,35.6,210.2,33.3z M212.8,22.3c0.3,0.3,0.5,0.7,0.5,1.1v19.7c0,0.4-0.2,0.8-0.5,1.1   c-0.3,0.3-0.7,0.5-1.1,0.5c-0.4,0-0.8-0.2-1.1-0.5c-0.3-0.3-0.5-0.7-0.5-1.1v-1.9c-1.9,2.1-4.7,3.5-7.7,3.5c-3,0-5.7-1.3-7.7-3.4   c-1.9-2.1-3.1-4.9-3.1-8c0-3.1,1.2-5.9,3.1-8c1.9-2.1,4.6-3.4,7.7-3.4c3,0,5.8,1.3,7.7,3.4v-1.9c0-0.4,0.2-0.8,0.5-1.1   c0.3-0.3,0.7-0.4,1.1-0.4C212.1,21.9,212.5,22.1,212.8,22.3z M234.6,24.3c0.3-0.3,0.5-0.7,0.5-1.1c0-0.4-0.2-0.8-0.5-1.1h0   c0,0,0,0,0,0c0,0,0,0,0,0h0c-0.3-0.3-0.7-0.5-1.1-0.5c-0.4,0-0.8,0.2-1.1,0.5l-12.1,11.8V14.1c0-0.9-0.7-1.5-1.6-1.5   c-0.4,0-0.8,0.2-1.1,0.5c-0.3,0.3-0.5,0.7-0.5,1.1v29c0,0.4,0.2,0.8,0.5,1.1c0.3,0.3,0.7,0.5,1.1,0.5c0.9,0,1.6-0.7,1.6-1.5v-4.8   l3.9-3.9l8,9.7c0.2,0.2,0.4,0.4,0.6,0.5c0.2,0.1,0.5,0.1,0.7,0.1c0.3,0,0.7-0.1,1-0.3l0,0l0,0c0.3-0.3,0.5-0.7,0.5-1.2   c0-0.4-0.1-0.7-0.4-1v0l-8.2-9.9L234.6,24.3L234.6,24.3z M180.5,12.6h-0.3c0,0-0.1,0-0.1,0c0,0-0.1,0-0.1,0c-0.9,0-1.8,0.1-2.6,0.4   c-0.8,0.3-1.5,0.7-2.1,1.4l0,0l0,0v0c-0.6,0.7-1,1.4-1.2,2.3c-0.2,0.9-0.3,1.9-0.3,3V22h-2.4c-0.8,0-1.5,0.7-1.5,1.5   c0,0.4,0.2,0.8,0.4,1.1c0.3,0.3,0.7,0.5,1.1,0.5h2.4v18l0,0c0,0.4,0.2,0.8,0.5,1.1c0.3,0.3,0.7,0.4,1.1,0.4c0.8,0,1.5-0.7,1.5-1.5   V25.1h2.6c0.4,0,0.8-0.2,1.1-0.5c0.3-0.3,0.5-0.7,0.5-1.1v-0.1c0-0.8-0.7-1.5-1.5-1.5h-2.6v-2.2c0-1,0.1-1.7,0.3-2.2   c0.1-0.5,0.3-0.9,0.5-1.1c0.2-0.2,0.4-0.3,0.8-0.5c0.4-0.1,0.9-0.2,1.5-0.2h0.1c0,0,0.1,0,0.1,0c0,0,0.1,0,0.1,0h0.2h0.1   c0.9,0,1.6-0.7,1.6-1.6C182,13.3,181.3,12.6,180.5,12.6z M24.8,34.3c0.1-0.4,0.2-0.8,0.2-1.2c0-0.3-0.1-0.6-0.1-0.9   c-0.2-0.9-0.8-1.7-1.7-2.2l-12.5-7.2c-1.8-1-4-0.4-5,1.4c-1,1.8-0.4,4,1.3,5l7,4.1l-7,4c-1.8,1-2.4,3.3-1.3,5.1   c1,1.8,3.3,2.4,5,1.3l12.5-7.2C23.9,35.9,24.5,35.1,24.8,34.3z M28.2,41.1c-0.7-0.1-1.5,0.1-2.1,0.5l-12.6,7.2   c-1.8,1-2.4,3.3-1.3,5.1c1,1.8,3.3,2.4,5,1.3l7-4.1v8.1c0,2,1.7,3.7,3.7,3.7c2,0,3.7-1.7,3.7-3.7V44.8   C31.6,42.8,30.1,41.2,28.2,41.1z M41,25.3c0.7,0.1,1.5-0.1,2.1-0.5l12.5-7.2c1.8-1,2.4-3.3,1.4-5.1c-1-1.8-3.3-2.4-5-1.3l-7,4.1   V7.2c0-2-1.7-3.7-3.7-3.7c-2,0-3.7,1.7-3.7,3.7v14.5C37.6,23.6,39.1,25.2,41,25.3z M13.5,17.6L26,24.8c0.7,0.4,1.4,0.5,2.1,0.5   c1.9-0.1,3.4-1.7,3.4-3.7V7.2c0-2-1.7-3.7-3.7-3.7c-2,0-3.7,1.7-3.7,3.7v8.1l-7-4.1c-1.8-1-4-0.4-5,1.3   C11.1,14.3,11.7,16.6,13.5,17.6z M37.1,33.2c0-0.2-0.1-0.5-0.3-0.7L35.3,31c-0.1-0.1-0.4-0.3-0.7-0.3h-0.1c-0.2,0-0.5,0.1-0.6,0.3   l-1.5,1.5c-0.2,0.2-0.3,0.4-0.3,0.7v0.1c0,0.2,0.1,0.5,0.3,0.7l1.5,1.5c0.1,0.1,0.4,0.3,0.6,0.3h0.1c0.2,0,0.5-0.1,0.7-0.3l1.5-1.5   C36.9,33.7,37.1,33.4,37.1,33.2L37.1,33.2z M41.2,34.6L36,39.8c-0.1,0.2-0.4,0.3-0.7,0.3H35h-0.8h-0.4c-0.2,0-0.5-0.1-0.7-0.3   L28,34.6c-0.1-0.1-0.3-0.4-0.3-0.6v-0.4v-0.8v-0.4c0-0.2,0.1-0.5,0.3-0.7l5.2-5.2c0.2-0.2,0.4-0.3,0.7-0.3h0.4H35h0.4   c0.2,0,0.5,0.1,0.7,0.3l5.2,5.2c0.1,0.1,0.3,0.4,0.3,0.7v0.4v0.8V34C41.5,34.2,41.4,34.5,41.2,34.6z M55.7,48.8l-12.5-7.2   c-0.7-0.4-1.4-0.5-2.1-0.5c-1.9,0.1-3.4,1.7-3.4,3.7v14.5c0,2,1.6,3.7,3.7,3.7c2,0,3.7-1.7,3.7-3.7v-8.1l7,4.1c1.8,1,4,0.4,5-1.3   C58.1,52.1,57.5,49.8,55.7,48.8z M62.4,29.1l-7,4.1l7,4c1.8,1,2.4,3.3,1.4,5.1c-1,1.8-3.3,2.4-5,1.3l-12.6-7.2   c-0.8-0.5-1.4-1.3-1.7-2.1c-0.1-0.4-0.2-0.8-0.2-1.2c0-0.3,0-0.6,0.1-0.9c0.3-0.9,0.8-1.7,1.7-2.2l12.6-7.2c1.8-1,4-0.4,5,1.4   C64.7,25.9,64.1,28.1,62.4,29.1z M265.9,21.9c0,2-1.4,3.7-3.6,3.7c-2.3,0-3.6-1.7-3.6-3.7c0-2,1.3-3.7,3.6-3.7   C264.5,18.2,265.9,19.9,265.9,21.9z M265.2,21.9c0-1.7-1.2-3-2.9-3c-1.7,0-2.9,1.2-2.9,3c0,1.7,1.2,3,2.9,3   C264,25,265.2,23.6,265.2,21.9z M260.8,20.2h1.6c0.8,0,1.4,0.5,1.4,1.2c0,0.4-0.2,0.8-0.6,1l0.6,0.9v0.2H263l-0.6-0.8h-0.7v0.8   h-0.8V20.2z M262.4,21h-0.7v0.8h0.7c0.3,0,0.5-0.1,0.5-0.4C262.9,21.2,262.7,21,262.4,21z"/>
</g>
</svg>