<svg xmlns="http://www.w3.org/2000/svg" xmlns:xlink="http://www.w3.org/1999/xlink" viewBox="0 0 127 24"><path d="M 20.637 6.466 L 0 6.466 C 0 2.928 3.135 0 6.792 0 L 27.429 0 C 27.429 3.538 24.294 6.466 20.637 6.466 Z" fill="rgb(238,238,238)"/><path d="M 8.01 22.84 L 9.411 13.246 C 10.01 9.166 13.51 6.143 17.633 6.142 L 15.744 18.608 C 15.102 21.536 11.728 23.475 8.01 22.84 Z M 32.351 7.711 L 32.709 5.581 L 42.744 5.581 L 42.386 7.711 L 38.646 7.711 L 36.974 17.8 L 34.42 17.8 L 36.09 7.711 L 32.35 7.711 Z M 42.321 17.8 L 43.847 8.636 L 46.389 8.636 L 44.862 17.8 L 42.32 17.8 Z M 45.381 7.443 C 45.003 7.443 44.691 7.318 44.444 7.067 C 44.207 6.829 44.096 6.492 44.146 6.16 C 44.19 5.802 44.374 5.475 44.659 5.253 C 44.957 5.003 45.295 4.878 45.673 4.878 C 46.051 4.878 46.359 5.003 46.598 5.253 C 46.836 5.5 46.936 5.803 46.896 6.16 C 46.856 6.51 46.687 6.813 46.389 7.067 C 46.094 7.317 45.759 7.443 45.381 7.443 Z M 50.453 21.427 C 49.626 21.427 48.936 21.314 48.383 21.087 C 47.834 20.864 47.416 20.56 47.13 20.174 C 46.85 19.796 46.689 19.344 46.665 18.874 L 49.075 18.558 C 49.119 18.744 49.202 18.918 49.325 19.076 C 49.453 19.236 49.634 19.363 49.868 19.458 C 50.108 19.554 50.415 19.602 50.793 19.602 C 51.346 19.602 51.827 19.466 52.237 19.196 C 52.647 18.929 52.899 18.482 52.995 17.853 L 53.269 16.177 L 53.162 16.177 C 52.796 16.766 52.244 17.215 51.593 17.454 C 51.223 17.597 50.795 17.669 50.31 17.669 C 49.618 17.669 49.017 17.509 48.508 17.191 C 48.003 16.869 47.638 16.378 47.41 15.718 C 47.188 15.053 47.16 14.214 47.327 13.2 C 47.502 12.162 47.817 11.295 48.27 10.599 C 48.723 9.903 49.26 9.382 49.88 9.036 C 50.471 8.697 51.139 8.518 51.82 8.516 C 52.332 8.516 52.746 8.604 53.06 8.779 C 53.378 8.95 53.623 9.165 53.794 9.424 C 53.965 9.678 54.086 9.929 54.158 10.175 L 54.259 10.175 L 54.509 8.636 L 57.033 8.636 L 55.494 17.889 C 55.371 18.673 55.074 19.325 54.605 19.846 C 54.14 20.371 53.549 20.765 52.834 21.027 C 52.118 21.294 51.324 21.427 50.454 21.427 Z M 51.408 15.759 C 51.793 15.765 52.172 15.659 52.499 15.455 C 52.826 15.248 53.098 14.955 53.317 14.572 C 53.535 14.187 53.689 13.725 53.777 13.188 C 53.864 12.651 53.862 12.186 53.77 11.792 C 53.683 11.394 53.512 11.086 53.257 10.867 C 53.007 10.649 52.677 10.539 52.267 10.539 C 51.845 10.539 51.475 10.653 51.157 10.879 C 50.822 11.121 50.55 11.441 50.364 11.81 C 50.146 12.243 49.999 12.708 49.928 13.188 C 49.841 13.718 49.837 14.174 49.916 14.56 C 50 14.942 50.165 15.238 50.411 15.45 C 50.658 15.656 50.991 15.76 51.408 15.76 Z M 61.681 17.979 C 60.742 17.979 59.965 17.788 59.348 17.406 C 58.738 17.028 58.279 16.45 58.048 15.771 C 57.801 15.063 57.759 14.226 57.922 13.26 C 58.082 12.317 58.402 11.49 58.883 10.778 C 59.348 10.084 59.974 9.513 60.708 9.113 C 61.44 8.716 62.256 8.517 63.155 8.517 C 63.759 8.517 64.306 8.614 64.795 8.809 C 65.273 8.989 65.696 9.289 66.025 9.68 C 66.35 10.066 66.573 10.55 66.692 11.13 C 66.816 11.71 66.814 12.39 66.686 13.17 L 66.573 13.868 L 58.841 13.868 L 59.086 12.293 L 64.431 12.293 C 64.491 11.927 64.467 11.603 64.36 11.321 C 64.259 11.047 64.07 10.814 63.823 10.659 C 63.573 10.495 63.263 10.414 62.898 10.414 C 62.53 10.412 62.168 10.507 61.848 10.688 C 61.526 10.868 61.245 11.114 61.025 11.41 C 60.806 11.705 60.665 12.025 60.601 12.37 L 60.321 13.934 C 60.241 14.415 60.257 14.814 60.368 15.133 C 60.472 15.437 60.684 15.692 60.965 15.849 C 61.247 16.004 61.605 16.082 62.039 16.082 C 62.321 16.082 62.586 16.042 62.832 15.962 C 63.083 15.882 63.306 15.765 63.501 15.61 C 63.698 15.448 63.861 15.247 63.978 15.02 L 66.298 15.175 C 66.087 15.735 65.752 16.241 65.32 16.655 C 64.864 17.084 64.327 17.416 63.74 17.633 C 63.127 17.863 62.44 17.979 61.681 17.979 Z M 67.586 17.799 L 69.113 8.636 L 71.577 8.636 L 71.308 10.235 L 71.404 10.235 C 71.666 9.666 72.018 9.237 72.46 8.946 C 72.884 8.658 73.385 8.505 73.898 8.505 C 74.025 8.505 74.158 8.513 74.298 8.529 C 74.441 8.541 74.568 8.561 74.679 8.589 L 74.297 10.849 C 74.142 10.8 73.982 10.768 73.82 10.754 C 73.628 10.727 73.435 10.713 73.241 10.712 C 72.871 10.712 72.528 10.794 72.209 10.957 C 71.893 11.115 71.617 11.343 71.404 11.625 C 71.187 11.917 71.041 12.256 70.98 12.615 L 70.127 17.8 L 67.586 17.8 Z M 74.508 17.799 L 76.536 5.582 L 81.428 5.582 C 82.327 5.582 83.055 5.715 83.612 5.982 C 84.172 6.248 84.564 6.618 84.787 7.091 C 85.01 7.561 85.069 8.101 84.966 8.714 C 84.894 9.165 84.72 9.593 84.459 9.967 C 84.209 10.324 83.898 10.619 83.529 10.85 C 83.159 11.08 82.757 11.243 82.323 11.339 L 82.299 11.458 C 82.76 11.478 83.176 11.609 83.546 11.852 C 83.916 12.09 84.192 12.428 84.376 12.866 C 84.558 13.304 84.6 13.823 84.501 14.423 C 84.399 15.059 84.134 15.657 83.731 16.159 C 83.325 16.664 82.784 17.064 82.108 17.359 C 81.436 17.653 80.643 17.799 79.728 17.799 Z M 77.448 15.688 L 79.555 15.688 C 80.271 15.688 80.818 15.548 81.195 15.27 C 81.573 14.992 81.8 14.624 81.875 14.167 C 81.927 13.829 81.894 13.53 81.775 13.272 C 81.654 13.007 81.445 12.792 81.183 12.663 C 80.909 12.516 80.561 12.443 80.139 12.443 L 77.979 12.443 L 77.449 15.688 Z M 78.278 10.694 L 80.193 10.694 C 80.543 10.694 80.867 10.633 81.166 10.509 C 81.468 10.382 81.716 10.203 81.911 9.973 C 82.111 9.738 82.236 9.461 82.287 9.143 C 82.359 8.698 82.259 8.342 81.989 8.075 C 81.722 7.805 81.305 7.67 80.736 7.67 L 78.78 7.67 L 78.28 10.694 Z M 89.72 17.98 C 88.782 17.98 88.004 17.789 87.388 17.407 C 86.778 17.029 86.318 16.451 86.087 15.772 C 85.84 15.064 85.799 14.227 85.962 13.261 C 86.121 12.318 86.441 11.491 86.922 10.779 C 87.388 10.085 88.014 9.514 88.748 9.114 C 89.48 8.717 90.295 8.518 91.194 8.518 C 91.798 8.518 92.345 8.615 92.834 8.81 C 93.328 9.001 93.737 9.291 94.064 9.681 C 94.39 10.067 94.612 10.551 94.732 11.131 C 94.855 11.711 94.852 12.391 94.726 13.171 L 94.612 13.869 L 86.88 13.869 L 87.125 12.294 L 92.471 12.294 C 92.531 11.928 92.506 11.604 92.399 11.322 C 92.298 11.048 92.109 10.815 91.862 10.66 C 91.612 10.496 91.303 10.415 90.937 10.415 C 90.569 10.413 90.207 10.508 89.887 10.689 C 89.565 10.869 89.284 11.115 89.064 11.411 C 88.845 11.706 88.704 12.026 88.64 12.371 L 88.36 13.935 C 88.28 14.416 88.296 14.815 88.408 15.134 C 88.511 15.438 88.724 15.693 89.004 15.85 C 89.287 16.005 89.644 16.083 90.078 16.083 C 90.361 16.083 90.625 16.043 90.872 15.963 C 91.122 15.883 91.345 15.766 91.54 15.611 C 91.737 15.449 91.9 15.248 92.017 15.021 L 94.337 15.176 C 94.126 15.736 93.791 16.242 93.359 16.656 C 92.903 17.085 92.366 17.417 91.779 17.634 C 91.166 17.864 90.479 17.98 89.72 17.98 Z M 99.777 17.98 C 98.839 17.98 98.061 17.789 97.445 17.407 C 96.835 17.029 96.375 16.451 96.144 15.772 C 95.897 15.064 95.856 14.227 96.019 13.261 C 96.178 12.318 96.498 11.491 96.979 10.779 C 97.444 10.085 98.071 9.514 98.805 9.114 C 99.537 8.717 100.352 8.518 101.251 8.518 C 101.855 8.518 102.402 8.615 102.891 8.81 C 103.385 9.001 103.794 9.291 104.12 9.681 C 104.447 10.067 104.669 10.551 104.789 11.131 C 104.912 11.711 104.91 12.391 104.783 13.171 L 104.669 13.869 L 96.937 13.869 L 97.182 12.294 L 102.528 12.294 C 102.587 11.928 102.563 11.604 102.456 11.322 C 102.356 11.048 102.167 10.815 101.919 10.66 C 101.668 10.496 101.36 10.415 100.994 10.415 C 100.626 10.413 100.264 10.508 99.944 10.689 C 99.622 10.869 99.341 11.115 99.121 11.411 C 98.902 11.706 98.761 12.026 98.697 12.371 L 98.417 13.935 C 98.337 14.416 98.353 14.815 98.465 15.134 C 98.568 15.438 98.781 15.693 99.061 15.85 C 99.344 16.005 99.701 16.083 100.135 16.083 C 100.418 16.083 100.682 16.043 100.929 15.963 C 101.179 15.883 101.402 15.766 101.597 15.611 C 101.794 15.449 101.957 15.248 102.074 15.021 L 104.395 15.176 C 104.183 15.736 103.849 16.242 103.416 16.656 C 102.96 17.085 102.423 17.418 101.836 17.634 C 101.223 17.864 100.537 17.98 99.777 17.98 Z M 112.083 8.637 L 111.767 10.547 L 106.243 10.547 L 106.565 8.637 Z M 108.176 6.442 L 110.717 6.442 L 109.297 14.985 C 109.258 15.22 109.264 15.403 109.315 15.534 C 109.361 15.655 109.453 15.751 109.572 15.802 C 109.695 15.854 109.842 15.88 110.013 15.88 C 110.133 15.88 110.254 15.87 110.377 15.85 L 110.658 15.796 L 110.753 17.687 C 110.562 17.743 110.369 17.791 110.174 17.831 C 109.895 17.887 109.612 17.919 109.327 17.926 C 108.707 17.95 108.182 17.868 107.752 17.681 C 107.346 17.513 107.017 17.2 106.827 16.804 C 106.641 16.411 106.601 15.916 106.708 15.319 Z M 116.978 5.582 L 114.949 17.8 L 112.408 17.8 L 114.436 5.582 L 116.977 5.582 Z M 121.138 17.98 C 120.2 17.98 119.422 17.789 118.806 17.407 C 118.196 17.029 117.736 16.451 117.505 15.772 C 117.258 15.064 117.217 14.227 117.38 13.261 C 117.539 12.318 117.859 11.491 118.34 10.779 C 118.805 10.085 119.432 9.514 120.166 9.114 C 120.898 8.717 121.713 8.518 122.612 8.518 C 123.216 8.518 123.763 8.615 124.252 8.81 C 124.746 9.001 125.155 9.291 125.481 9.681 C 125.808 10.067 126.03 10.551 126.15 11.131 C 126.273 11.711 126.271 12.391 126.144 13.171 L 126.03 13.869 L 118.298 13.869 L 118.543 12.294 L 123.888 12.294 C 123.948 11.928 123.924 11.604 123.817 11.322 C 123.717 11.048 123.528 10.815 123.28 10.66 C 123.029 10.496 122.721 10.415 122.355 10.415 C 121.987 10.413 121.625 10.508 121.305 10.689 C 120.979 10.872 120.705 11.113 120.482 11.411 C 120.263 11.706 120.122 12.026 120.058 12.371 L 119.778 13.935 C 119.698 14.416 119.714 14.815 119.826 15.134 C 119.929 15.438 120.142 15.693 120.422 15.85 C 120.705 16.005 121.063 16.083 121.496 16.083 C 121.779 16.083 122.043 16.043 122.29 15.963 C 122.54 15.883 122.763 15.766 122.958 15.611 C 123.155 15.449 123.318 15.248 123.435 15.021 L 125.756 15.176 C 125.544 15.736 125.21 16.242 124.777 16.656 C 124.321 17.085 123.783 17.418 123.196 17.634 C 122.584 17.864 121.898 17.98 121.138 17.98 Z" fill="rgb(238,238,238)"/></svg>