<?xml version="1.0" standalone="no"?>
<!DOCTYPE svg PUBLIC "-//W3C//DTD SVG 20010904//EN"
 "http://www.w3.org/TR/2001/REC-SVG-20010904/DTD/svg10.dtd">
<svg version="1.0" xmlns="http://www.w3.org/2000/svg"
 width="700.000000pt" height="700.000000pt" viewBox="0 0 700.000000 700.000000"
 preserveAspectRatio="xMidYMid meet">
<metadata>
Created by potrace 1.14, written by Peter Selinger 2001-2017
</metadata>
<g transform="translate(0.000000,700.000000) scale(0.100000,-0.100000)"
fill="#000000" stroke="none">
<path d="M3490 5152 c-23 -4 -158 -58 -335 -134 -38 -17 -85 -36 -102 -44 -18
-8 -48 -20 -65 -28 -18 -8 -125 -53 -238 -101 -113 -48 -223 -95 -245 -105
-22 -10 -148 -64 -280 -120 -132 -56 -259 -110 -281 -121 -23 -10 -93 -39
-155 -65 -122 -50 -175 -82 -225 -136 -98 -104 -142 -283 -107 -433 16 -67 70
-173 109 -212 l25 -25 -28 -32 c-15 -17 -30 -33 -33 -36 -15 -15 -60 -111 -71
-150 -17 -64 -20 -199 -5 -256 19 -73 53 -138 96 -187 l39 -44 -22 -24 c-125
-136 -159 -357 -81 -528 56 -123 164 -211 289 -237 11 -2 29 -6 40 -8 118 -25
274 -59 290 -62 17 -3 70 -15 85 -19 3 -1 23 -5 45 -9 22 -5 99 -22 170 -38
72 -16 182 -40 245 -53 63 -14 158 -34 210 -45 52 -12 117 -25 144 -31 27 -5
65 -13 85 -19 20 -5 47 -11 61 -13 14 -3 131 -28 260 -57 129 -29 247 -52 261
-51 20 1 412 163 534 221 11 5 259 111 550 236 660 283 671 287 685 314 29 53
16 98 -35 129 -20 12 -41 39 -60 77 -67 140 -30 380 71 469 57 49 49 126 -15
159 -35 18 -53 46 -75 114 -18 54 -24 164 -12 215 3 15 8 38 11 52 12 57 53
131 88 157 59 46 58 121 -2 156 -56 31 -101 145 -101 253 0 63 27 176 56 231
10 20 35 47 54 60 72 48 57 140 -25 164 -22 7 -200 47 -395 89 -195 42 -392
85 -437 96 -45 11 -104 24 -130 29 -39 8 -185 39 -253 55 -119 26 -620 138
-633 140 -9 2 -20 5 -25 7 -4 2 -18 2 -32 0z m1654 -729 c-3 -16 -8 -34 -10
-42 -6 -20 -6 -170 1 -201 14 -72 20 -89 42 -139 13 -30 20 -58 16 -62 -5 -4
-352 -154 -771 -334 l-764 -326 -211 46 c-337 74 -759 165 -792 171 -16 3 -46
9 -65 14 -19 5 -46 11 -60 14 -224 43 -745 161 -777 175 -165 78 -168 379 -4
479 32 19 32 19 144 -5 1466 -318 1770 -383 1788 -383 15 0 938 389 1118 471
24 11 64 29 90 39 45 17 155 66 216 95 42 20 46 18 39 -12z m-5 -705 c-16 -54
-18 -198 -3 -266 7 -35 24 -88 38 -118 l25 -55 -52 -23 c-29 -13 -375 -162
-770 -331 l-718 -308 -217 48 c-119 26 -244 53 -277 60 -33 7 -157 34 -275 60
-118 26 -222 48 -230 50 -49 10 -433 92 -646 138 -139 30 -266 63 -283 73
-100 59 -138 241 -77 363 26 50 80 105 116 116 17 5 314 -52 495 -95 22 -5
168 -37 325 -70 443 -95 538 -116 785 -171 291 -64 305 -66 352 -44 47 22 79
35 168 73 179 75 851 364 1030 443 110 48 205 88 212 88 8 1 9 -8 2 -31z m7
-685 c-12 -37 -22 -142 -19 -189 4 -68 21 -139 50 -208 13 -32 23 -59 21 -61
-2 -1 -111 -49 -243 -105 -132 -56 -258 -110 -280 -120 -22 -10 -121 -52 -220
-95 -99 -42 -193 -83 -210 -90 -226 -102 -576 -247 -595 -247 -14 0 -106 19
-205 41 -99 22 -225 50 -280 62 -98 21 -300 65 -340 74 -11 2 -31 6 -45 9 -14
3 -45 10 -70 16 -25 5 -56 12 -70 14 -24 5 -327 70 -460 100 -36 8 -143 31
-239 52 -146 32 -181 43 -215 68 -56 42 -95 123 -97 201 -4 100 14 153 71 219
58 65 49 66 436 -18 192 -41 518 -112 724 -156 206 -45 391 -85 410 -90 19 -5
49 -12 67 -15 18 -3 92 -19 165 -35 73 -17 146 -30 163 -30 17 0 344 135 750
310 396 170 724 310 728 310 5 0 6 -8 3 -17z"/>
<path d="M3331 3684 c-24 -30 -26 -55 -9 -87 18 -35 36 -48 72 -54 45 -7 86
30 86 77 0 76 -105 120 -149 64z"/>
<path d="M3348 3001 c-53 -30 -44 -116 15 -144 83 -41 154 49 95 118 -31 35
-76 46 -110 26z"/>
<path d="M3359 2289 c-39 -15 -54 -57 -36 -102 17 -40 42 -57 86 -57 39 0 71
34 71 75 0 34 -12 54 -50 79 -27 18 -34 18 -71 5z"/>
</g>
</svg>
